# Blender v2.76 (sub 0) OBJ File: ''
# www.blender.org
o Plane
v -0.491613 0.003611 -0.322202
v 0.551159 0.003611 0.271622
v -0.491613 1.203611 -0.322202
v -0.267139 0.003611 0.496097
v 0.326684 0.003611 -0.546676
v 0.326684 1.203611 -0.546676
v 0.551159 1.203611 0.271622
v -0.267139 1.203611 0.496097
vt 0.000100 0.000100
vt 0.999900 0.000100
vt 0.000100 0.999900
vt 0.999900 0.999900
vn -0.494900 -0.000000 0.869000
vn 0.869000 -0.000000 0.494900
s 1
f 1/1/1 2/2/1 3/3/1
f 4/1/2 5/2/2 6/4/2
f 2/2/1 7/4/1 3/3/1
f 8/3/2 4/1/2 6/4/2
